<svg width="40" height="40" viewBox="0 0 40 40" fill="none" xmlns="http://www.w3.org/2000/svg">
<path fill-rule="evenodd" clip-rule="evenodd" d="M20.0006 1.17426C19.5494 1.17285 13.1654 1.21205 8.025 4.82724C7.75989 5.01379 7.39385 4.94986 7.20739 4.68475C7.02092 4.41965 7.08462 4.05361 7.3498 3.86715C12.8852 -0.0258275 19.5142 -0.00603098 20.0011 0.000620062C20.2934 -0.00290108 23.1681 -0.011743 26.6852 1.03717C31.5252 2.4806 35.2451 5.26339 37.4431 9.08469C37.6047 9.36568 37.508 9.72445 37.227 9.88603C36.9495 10.0457 36.585 9.94698 36.4257 9.66991C35.2901 7.69556 33.7288 6.02177 31.7851 4.695C30.2197 3.62638 28.4025 2.77755 26.3839 2.17215C23.0948 1.18568 20.2959 1.173 20.0006 1.17426ZM37.7631 11.0065C38.0649 10.8881 38.4054 11.0365 38.5239 11.3381C39.6998 14.3296 40.1432 17.8758 39.8419 21.8779C39.4013 27.7324 37.6717 32.6224 34.7012 36.4121C34.0893 37.1927 33.2903 37.794 32.3792 38.1637C31.8785 39.1846 30.871 39.8565 29.7223 39.9068L27.6108 39.9994C27.5352 40.0028 27.4561 39.9908 27.3851 39.9649L25.8619 39.4128C24.3882 38.8786 23.618 37.2331 24.1449 35.7447L26.1623 30.047C26.2705 29.7414 26.6063 29.5814 26.9114 29.6897C27.2169 29.7978 27.3769 30.1332 27.2687 30.4388L25.2514 36.1365C24.9388 37.0193 25.3921 37.994 26.2618 38.3093L27.2291 38.6599L31.754 25.88L30.7785 25.5264C30.3626 25.3755 29.9131 25.3967 29.513 25.5859C29.1056 25.7784 28.7975 26.1209 28.6455 26.5503L28.0518 28.227C27.9435 28.5325 27.6079 28.6926 27.3028 28.5843C26.9972 28.4762 26.8373 28.1408 26.9454 27.8352L27.5391 26.1586C27.7964 25.432 28.3193 24.8517 29.0116 24.5246C29.6968 24.2008 30.4665 24.1647 31.1785 24.4229L32.7017 24.9751C32.775 25.0018 32.8445 25.0443 32.9018 25.0974L35.0553 27.0526C35.542 25.374 35.8611 23.5572 36.0061 21.6301C36.4165 16.1772 35.1682 11.8729 32.2957 8.83659C27.5998 3.8728 20.0888 3.96208 20.0121 3.96341C20.0045 3.96357 19.9967 3.96357 19.989 3.96341C19.9702 3.96279 18.0588 3.93548 15.589 4.53047C13.3354 5.07335 10.1373 6.26225 7.69901 8.8434C4.83116 11.8793 3.58499 16.1814 3.99508 21.6301C4.14015 23.5571 4.45909 25.3739 4.94587 27.0525L7.0994 25.0974C7.1566 25.0443 7.22608 25.0017 7.29948 24.9751L8.82272 24.4229C9.53462 24.1647 10.3042 24.2009 10.9896 24.5246C11.6818 24.8517 12.2048 25.432 12.4621 26.1586L15.8562 35.7447C16.3832 37.2331 15.613 38.8786 14.1393 39.4128L12.6161 39.9649C12.545 39.9908 12.4661 40.0027 12.3904 39.9994L10.2789 39.9068C9.13016 39.8565 8.12272 39.1847 7.62193 38.1638C6.7109 37.7941 5.91176 37.1928 5.29994 36.4121C2.3295 32.6225 0.599918 27.7324 0.159227 21.8779C-0.37536 14.776 1.4072 9.23534 5.45745 5.40982C5.69305 5.18728 6.06457 5.19784 6.28703 5.43353C6.50957 5.66921 6.499 6.04065 6.26332 6.26319C2.48279 9.83393 0.822845 15.0579 1.32958 21.7898C1.7525 27.4085 3.39915 32.0846 6.22389 35.6882C6.4508 35.9777 6.71012 36.2362 6.99556 36.4593L6.65433 35.4956L4.37638 29.062C3.54758 26.8554 3.02544 24.3846 2.82481 21.7182C2.38835 15.9219 3.74367 11.3165 6.85284 8.03001C8.31302 6.48666 10.9727 4.42711 15.3519 3.38047C17.885 2.77515 19.8176 2.78704 20.0006 2.78986C20.1845 2.78696 22.1165 2.77507 24.6494 3.38047C27.0664 3.95817 30.5029 5.23376 33.1483 8.03001C36.2576 11.3166 37.6128 15.9219 37.1764 21.7182C36.9759 24.3832 36.4541 26.8528 35.626 29.0585L33.0057 36.4592C33.2911 36.2361 33.5504 35.9777 33.7773 35.6882C36.6019 32.0846 38.2486 27.4086 38.6715 21.7899C38.9593 17.9653 38.5422 14.5933 37.4315 11.7674C37.313 11.4658 37.4614 11.1251 37.7631 11.0065ZM10.4881 25.5858C10.088 25.3967 9.63861 25.3755 9.22265 25.5262L8.24713 25.8799L12.772 38.6599L13.7393 38.3092C14.6091 37.9939 15.0624 37.0192 14.7498 36.1364L11.3557 26.5503C11.2037 26.1208 10.8956 25.7783 10.4881 25.5858ZM11.5724 38.7887L7.24063 26.5543L5.34344 28.2768L8.58407 37.4294C8.85238 38.1874 9.53783 38.6995 10.3302 38.7343L11.5724 38.7887ZM28.4287 38.7887L29.6709 38.7343C30.4633 38.6995 31.1487 38.1873 31.417 37.4295L34.6577 28.2768L32.7605 26.5543L28.4287 38.7887Z" fill="#67C7FB"/>
</svg>
