<svg width="32" height="40" viewBox="0 0 32 40" fill="none" xmlns="http://www.w3.org/2000/svg">
<path fill-rule="evenodd" clip-rule="evenodd" d="M28.3047 0H3.69531C2.07984 0 0.765625 1.31422 0.765625 2.92969V37.0703C0.765625 38.6858 2.07984 40 3.69531 40H28.3047C29.9202 40 31.2344 38.6858 31.2344 37.0703V2.92969C31.2344 1.31422 29.9202 0 28.3047 0ZM30.0625 37.0703C30.0625 38.0396 29.2739 38.8281 28.3047 38.8281H3.69531C2.72609 38.8281 1.9375 38.0396 1.9375 37.0703V2.92969C1.9375 1.96039 2.72609 1.17188 3.69531 1.17188H28.3047C29.2739 1.17188 30.0625 1.96039 30.0625 2.92969V37.0703ZM12.4844 3.51562C12.808 3.51562 13.0703 3.25329 13.0703 2.92969C13.0703 2.60608 12.808 2.34375 12.4844 2.34375C12.1608 2.34375 11.8984 2.60608 11.8984 2.92969C11.8984 3.25329 12.1608 3.51562 12.4844 3.51562ZM19.5156 3.51562C19.8392 3.51562 20.1016 3.25329 20.1016 2.92969C20.1016 2.60608 19.8392 2.34375 19.5156 2.34375C19.192 2.34375 18.9297 2.60608 18.9297 2.92969C18.9297 3.25329 19.192 3.51562 19.5156 3.51562ZM17.1719 3.51562H14.8281C14.5045 3.51562 14.2422 3.25328 14.2422 2.92969C14.2422 2.60609 14.5045 2.34375 14.8281 2.34375H17.1719C17.4955 2.34375 17.7578 2.60609 17.7578 2.92969C17.7578 3.25328 17.4955 3.51562 17.1719 3.51562ZM3.69531 4.6875H28.3047C28.6284 4.6875 28.8906 4.94984 28.8906 5.27344V34.7266C28.8906 35.0502 28.6284 35.3125 28.3047 35.3125H3.69531C3.37164 35.3125 3.10938 35.0502 3.10938 34.7266V21.1719C3.10938 20.8483 3.37164 20.5859 3.69531 20.5859C4.01898 20.5859 4.28125 20.8483 4.28125 21.1719V34.1406H27.7188V5.85938H4.28125V18.8281C4.28125 19.1517 4.01898 19.4141 3.69531 19.4141C3.37164 19.4141 3.10938 19.1517 3.10938 18.8281V5.27344C3.10938 4.94984 3.37164 4.6875 3.69531 4.6875Z" fill="#9744F6"/>
</svg>
