<svg width="26" height="40" viewBox="0 0 26 40" fill="none" xmlns="http://www.w3.org/2000/svg">
<path d="M22.375 0H3.625C2.00953 0 0.695312 1.31422 0.695312 2.92969V17.0703C0.695312 17.3939 0.957656 17.6562 1.28125 17.6562C1.60484 17.6562 1.86719 17.3939 1.86719 17.0703V2.92969C1.86719 1.96039 2.6557 1.17188 3.625 1.17188H6.89797L8.38367 2.65758C8.93695 3.21094 9.67266 3.51562 10.4552 3.51562H15.5448C16.3273 3.51562 17.063 3.21094 17.6163 2.65758L19.102 1.17188H22.375C23.3443 1.17188 24.1328 1.96039 24.1328 2.92969V33.5547C24.1328 34.524 23.3443 35.3125 22.375 35.3125H3.625C2.6557 35.3125 1.86719 34.524 1.86719 33.5547V19.4141C1.86719 19.0905 1.60484 18.8281 1.28125 18.8281C0.957656 18.8281 0.695312 19.0905 0.695312 19.4141V37.0703C0.695312 38.6858 2.00953 40 3.625 40H22.375C23.9905 40 25.3047 38.6858 25.3047 37.0703V2.92969C25.3047 1.31422 23.9905 0 22.375 0ZM16.7877 1.82891C16.4557 2.16094 16.0143 2.34375 15.5448 2.34375H10.4552C9.98562 2.34375 9.54422 2.16094 9.21219 1.82891L8.55516 1.17188H17.4448L16.7877 1.82891ZM22.375 38.8281H3.625C2.6557 38.8281 1.86719 38.0396 1.86719 37.0703V35.8969C2.35719 36.2655 2.96594 36.4844 3.625 36.4844H22.375C23.0341 36.4844 23.6428 36.2655 24.1328 35.8969V37.0703C24.1328 38.0396 23.3443 38.8281 22.375 38.8281Z" fill="#CF38DD"/>
</svg>
