<svg width="32" height="40" viewBox="0 0 32 40" fill="none" xmlns="http://www.w3.org/2000/svg">
<path fill-rule="evenodd" clip-rule="evenodd" d="M28.7473 17.5824H28.2431C27.8237 15.8306 26.9498 14.2118 25.6821 12.88C24.3045 11.4324 23.4531 9.56977 23.2848 7.63516L23.2847 7.635V7.63454C23.2637 7.39477 23.253 7.15016 23.253 6.90735V6.81321C23.2528 3.05633 20.1965 5.50025e-06 16.4396 5.50025e-06H7.64844C7.64606 5.50025e-06 7.64373 0.000166945 7.64142 0.000326928L7.63562 0.0006305C7.62917 0.000669611 7.62272 0.000493344 7.61627 0.000317344C7.60985 0.000141782 7.60343 -3.35137e-05 7.59703 5.50025e-06C3.86852 0.0279743 0.835312 3.11922 0.835312 6.89055V33.0954C0.835312 36.89 3.88109 39.9874 7.62531 40H7.64695H7.64883H16.4398C20.1966 40 23.253 36.9437 23.253 33.1868V33.0927C23.253 32.8498 23.2637 32.6052 23.2847 32.3656V32.3652L23.2848 32.365C23.4531 30.4303 24.3045 28.5677 25.6821 27.1202C26.9498 25.7884 27.8237 24.1696 28.2431 22.4177H28.7473C30.0804 22.4177 31.1648 21.3333 31.1648 20.0002C31.1648 18.667 30.0804 17.5824 28.7473 17.5824ZM22.7087 10.7055C21.2989 10.0191 19.7826 9.67032 18.1978 9.67032C16.6156 9.67032 15.1019 10.0179 13.6941 10.7019C14.0106 9.94844 14.233 9.16001 14.3538 8.35165H22.0425C22.1647 9.15922 22.3907 9.94969 22.7087 10.7055ZM16.4396 1.31868C19.4692 1.31868 21.9341 3.78352 21.9341 6.81321V6.90727C21.9341 6.94915 21.9344 6.99102 21.9349 7.03297H14.4608C14.4613 6.99102 14.4616 6.94915 14.4616 6.90727V6.81321C14.4616 6.71376 14.4587 6.61501 14.4545 6.51649C14.4534 6.49344 14.4525 6.47032 14.4513 6.44727C14.4463 6.35352 14.4397 6.26032 14.4311 6.16774C14.4297 6.15211 14.4279 6.13652 14.4261 6.12098L14.4232 6.09446C14.4158 6.02297 14.407 5.95204 14.3974 5.88118L14.3923 5.84391L14.3923 5.84389C14.3897 5.82441 14.3871 5.80491 14.3842 5.78555C14.3722 5.70704 14.3588 5.62915 14.3442 5.55157C14.3354 5.50469 14.3259 5.45805 14.3162 5.41126C14.3085 5.37485 14.3003 5.33844 14.2921 5.30227C14.2698 5.20336 14.2452 5.10501 14.2184 5.00743L14.2093 4.97352C13.9043 3.88102 13.3293 2.87618 12.5152 2.04501C12.2534 1.77782 11.9734 1.5361 11.6791 1.31868H16.4396ZM11.1926 5.1793C11.2093 5.1254 11.2267 5.0718 11.2451 5.01852C11.2546 4.99063 11.2647 4.9629 11.2748 4.93516C11.2931 4.88469 11.3121 4.83454 11.3318 4.78477C11.3426 4.75751 11.3534 4.73032 11.3646 4.70329C11.3868 4.65016 11.4101 4.59751 11.4338 4.54516L11.4445 4.52132C11.4508 4.50703 11.4572 4.49275 11.4637 4.4786C11.4986 4.40454 11.5348 4.3311 11.573 4.25844L11.5755 4.25405L11.5787 4.24821C11.615 4.17954 11.653 4.11157 11.6923 4.04454C11.7005 4.03058 11.7089 4.01677 11.7174 4.00297L11.7326 3.97805C11.7618 3.92977 11.7914 3.88172 11.8223 3.83422C11.8384 3.80938 11.8548 3.78461 11.8715 3.75993C11.9016 3.71485 11.9325 3.67024 11.9641 3.62618C11.9812 3.60235 11.9984 3.57844 12.0156 3.55469C12.0207 3.54791 12.0259 3.54126 12.031 3.53463L12.0311 3.53461L12.0431 3.51899C12.5728 4.22368 12.937 5.0593 13.078 5.96797C13.0793 5.97643 13.0805 5.98493 13.0816 5.9935C13.082 5.99657 13.0825 5.99965 13.0829 6.00274C13.0935 6.07415 13.1027 6.14602 13.1103 6.21821C13.1129 6.24188 13.1153 6.2654 13.1175 6.28922C13.1234 6.35266 13.1282 6.41649 13.1321 6.48071L13.1331 6.49546L13.1331 6.49551C13.1343 6.51493 13.1356 6.53433 13.1365 6.55383C13.1405 6.63985 13.143 6.72633 13.143 6.81321V6.90727C13.143 7.03297 13.1398 7.15836 13.1342 7.28344C13.1324 7.32458 13.1294 7.36538 13.1264 7.40616L13.1225 7.4611L13.1196 7.50631C13.1166 7.55514 13.1136 7.60393 13.1092 7.65258C13.1027 7.72606 13.094 7.79947 13.0853 7.87269L13.0832 7.89032L13.0787 7.93099C13.0755 7.9596 13.0724 7.98821 13.0686 8.01672C13.0555 8.1136 13.0404 8.21024 13.0239 8.30657L13.0187 8.33865L13.0136 8.36985C12.9932 8.48469 12.9707 8.59891 12.9455 8.71297L12.9453 8.7136C12.6417 10.0869 11.9936 11.3875 11.0637 12.4871L11.0273 12.5305C11.0042 12.5582 10.9812 12.5858 10.9574 12.6129L10.9452 12.6263V6.81321C10.9452 6.72954 10.9474 6.64618 10.9513 6.56297C10.952 6.54644 10.9531 6.52993 10.9542 6.51342L10.9561 6.4836C10.9595 6.4268 10.9634 6.37001 10.9685 6.31352C10.9712 6.28313 10.9744 6.2529 10.9777 6.22251C10.9834 6.16907 10.9898 6.11571 10.997 6.06266C11.0012 6.03274 11.0053 6.0029 11.0097 5.97297C11.0184 5.91665 11.028 5.86063 11.0385 5.80454L11.0441 5.77348C11.0468 5.75875 11.0494 5.74401 11.0523 5.72938C11.0683 5.64883 11.0858 5.56883 11.1053 5.48922C11.1059 5.48727 11.1066 5.48524 11.107 5.48336C11.1263 5.40602 11.1473 5.32922 11.1699 5.25297C11.1749 5.23554 11.1803 5.21826 11.1858 5.20103L11.1926 5.1793ZM10.9238 37.5994C10.9054 37.6131 10.8864 37.6261 10.8677 37.6395C10.8175 37.6759 10.7673 37.7119 10.7159 37.7466C10.6962 37.7598 10.6763 37.7727 10.6564 37.7856L10.6562 37.7857L10.6397 37.7963C10.594 37.8263 10.548 37.8557 10.5016 37.8839C10.4778 37.8984 10.4538 37.9126 10.4298 37.9267L10.4181 37.9335C10.3725 37.9602 10.3267 37.9863 10.2804 38.0116C10.2519 38.0272 10.2234 38.0427 10.1944 38.0577C10.1472 38.0825 10.0995 38.1063 10.0516 38.1295L10.0406 38.135C10.0161 38.1469 9.99174 38.1589 9.96703 38.1704C9.91531 38.1944 9.86305 38.2173 9.8107 38.2397L9.78645 38.2502C9.76963 38.2576 9.75274 38.265 9.7357 38.272C9.66594 38.3006 9.59531 38.3277 9.52445 38.3534L9.51254 38.358L9.50062 38.3626C9.42148 38.3909 9.34156 38.4171 9.26125 38.4416C9.24588 38.4463 9.23041 38.4506 9.21499 38.4549L9.18656 38.4628C9.1307 38.4791 9.07484 38.4949 9.01836 38.5092C8.99401 38.5155 8.96947 38.5212 8.94485 38.527L8.94475 38.527L8.9232 38.532C8.87297 38.5441 8.82234 38.5556 8.77164 38.5662C8.73742 38.5731 8.70312 38.5796 8.66875 38.5861C8.61945 38.5953 8.57 38.6039 8.52039 38.6118C8.48547 38.6173 8.45047 38.6227 8.41539 38.6277C8.36477 38.6347 8.31391 38.6407 8.26305 38.6464L8.2351 38.6495C8.2105 38.6522 8.1859 38.655 8.16125 38.6572C8.10516 38.6625 8.04891 38.6663 7.99242 38.6697L7.96075 38.6718L7.96062 38.6718C7.94232 38.6731 7.92404 38.6744 7.90562 38.6752C7.82016 38.6791 7.73445 38.6815 7.64836 38.6815H7.64789H7.64695H7.62945C4.61 38.6714 2.15367 36.1656 2.15367 33.0956V6.89055C2.15367 3.84086 4.59984 1.34126 7.60641 1.31868L7.645 1.31852L7.64805 1.31868C7.73953 1.31868 7.83055 1.32102 7.92094 1.32563L7.93711 1.32664L7.93712 1.32664C7.9445 1.32716 7.95189 1.32767 7.9593 1.3279C8.03859 1.33251 8.11781 1.33821 8.19625 1.3461C8.20687 1.34711 8.21734 1.34829 8.22797 1.34954C9.31727 1.46422 10.3127 1.89883 11.1184 2.55704C11.0553 2.63579 10.9943 2.71579 10.9351 2.79672C10.9254 2.80998 10.9161 2.82346 10.9068 2.83692C10.8996 2.84727 10.8925 2.8576 10.8852 2.86782C10.8417 2.92876 10.7987 2.98993 10.7574 3.05211C10.7406 3.07743 10.7244 3.10309 10.7082 3.12874L10.6955 3.14868C10.6602 3.20383 10.6252 3.2593 10.5916 3.3154C10.5705 3.35047 10.5501 3.38586 10.5298 3.42118C10.4983 3.47594 10.4674 3.5311 10.4376 3.58665C10.4179 3.6229 10.3987 3.65915 10.3799 3.69563C10.3505 3.75243 10.3224 3.80977 10.2948 3.86735L10.2802 3.89755C10.2679 3.92303 10.2556 3.94855 10.2437 3.9743C10.2152 4.03672 10.1881 4.09977 10.1613 4.16297L10.1449 4.20132C10.1368 4.22005 10.1288 4.2388 10.1211 4.25774C10.0863 4.34329 10.0537 4.42954 10.0227 4.51657C10.0211 4.52121 10.0193 4.52585 10.0175 4.53052C10.0155 4.53558 10.0135 4.54066 10.0117 4.54579C9.9775 4.64274 9.94594 4.74071 9.91617 4.8393C9.91101 4.85627 9.90629 4.87345 9.90159 4.89059L9.90158 4.89063C9.89804 4.90354 9.89451 4.91644 9.89078 4.92922C9.87102 4.99821 9.85172 5.06758 9.83398 5.13735C9.8267 5.16669 9.81988 5.19612 9.81306 5.22557L9.80719 5.25086C9.79242 5.31376 9.7782 5.37688 9.76523 5.44016C9.75695 5.48079 9.74922 5.52165 9.7418 5.56251C9.73047 5.6243 9.71984 5.68649 9.71008 5.74876C9.70359 5.79001 9.69742 5.83118 9.69164 5.87274C9.68273 5.93665 9.67539 6.00063 9.66836 6.06493L9.66436 6.10114L9.66435 6.10121C9.66127 6.12888 9.65818 6.15654 9.65563 6.18438C9.6493 6.25461 9.64453 6.32524 9.64031 6.39571L9.63766 6.43551C9.63619 6.45628 9.63473 6.47703 9.63383 6.49797C9.6293 6.60274 9.62648 6.7079 9.62648 6.81336V14.2241C8.91219 15.2835 8.39789 16.4734 8.11664 17.7393C8.11445 17.7491 8.11195 17.7588 8.10992 17.7686L8.10953 17.7705C8.09336 17.8441 8.07844 17.918 8.06383 17.9921C8.06297 17.9966 8.06208 18.001 8.06116 18.0054C8.06013 18.0104 8.05908 18.0153 8.05802 18.0203C8.05607 18.0294 8.05412 18.0385 8.05234 18.0477C8.05001 18.0597 8.0479 18.0719 8.04578 18.084L8.04117 18.1099C8.02648 18.1898 8.01305 18.2698 8.00008 18.3501C7.9992 18.3558 7.99824 18.3615 7.99728 18.3672C7.99619 18.3737 7.9951 18.3801 7.99414 18.3866L7.9893 18.417C7.98482 18.4449 7.98034 18.4728 7.97633 18.5009L7.97612 18.5027C7.97581 18.5053 7.97551 18.508 7.975 18.5106C7.96552 18.5773 7.95724 18.6445 7.94899 18.7116L7.94844 18.716L7.94356 18.7532C7.94133 18.7697 7.93911 18.7862 7.93719 18.8028C7.93523 18.8192 7.93367 18.8356 7.93187 18.852C7.92289 18.932 7.9157 19.0126 7.90867 19.0931C7.90763 19.1058 7.90638 19.1185 7.90513 19.1312C7.90358 19.147 7.90203 19.1629 7.90086 19.1788L7.89912 19.1989L7.89911 19.1989C7.89783 19.2136 7.89654 19.2284 7.89547 19.2432L7.89516 19.2511C7.89024 19.3192 7.88691 19.3875 7.88358 19.456L7.8818 19.4923C7.88122 19.5048 7.88047 19.5172 7.87971 19.5295L7.87971 19.5296C7.87882 19.5441 7.87793 19.5586 7.87734 19.5732L7.8768 19.5892C7.87141 19.7258 7.86797 19.8627 7.86797 20.0003C7.86797 20.1379 7.87141 20.2748 7.8768 20.4114L7.87734 20.4275C7.87793 20.4411 7.87875 20.4546 7.87958 20.468C7.8801 20.4765 7.88062 20.4851 7.88108 20.4936C7.88134 20.4985 7.88158 20.5034 7.8818 20.5083L7.88358 20.5447C7.88691 20.6131 7.89024 20.6815 7.89516 20.7495L7.89547 20.7575C7.89703 20.7791 7.89906 20.8004 7.90086 20.8219C7.90202 20.8376 7.90356 20.8533 7.9051 20.869L7.9051 20.8691C7.90636 20.8819 7.90762 20.8947 7.90867 20.9075C7.9157 20.9881 7.92289 21.0685 7.93187 21.1486L7.93375 21.1665C7.93482 21.1769 7.93589 21.1874 7.93719 21.1978C7.93908 21.2142 7.94128 21.2305 7.94348 21.2468L7.94349 21.2468L7.94844 21.2846L7.95016 21.2986C7.95802 21.3625 7.9659 21.4265 7.975 21.4901L7.97551 21.4931L7.97633 21.4997C7.97999 21.525 7.98399 21.5501 7.98799 21.5752L7.988 21.5753L7.99414 21.6141C7.99601 21.6263 7.99828 21.6384 8.00023 21.6507C8.01305 21.7309 8.02648 21.8109 8.04117 21.8906L8.04501 21.9124C8.04738 21.9259 8.04975 21.9395 8.05234 21.953C8.05416 21.9624 8.05616 21.9718 8.05815 21.9812L8.05816 21.9812C8.06011 21.9903 8.06205 21.9995 8.06383 22.0087C8.07844 22.0828 8.09336 22.1567 8.10953 22.2303L8.10984 22.2322L8.11419 22.2514L8.11641 22.261C8.39758 23.5271 8.91203 24.7173 9.62633 25.7767V33.1873C9.62633 33.2927 9.62914 33.3979 9.63391 33.5026C9.63485 33.5233 9.63629 33.5439 9.63772 33.5645L9.64039 33.6048C9.64461 33.6755 9.64937 33.746 9.6557 33.8163C9.65826 33.8441 9.66135 33.8717 9.66444 33.8993L9.66844 33.9355C9.67547 33.9998 9.68289 34.0639 9.69172 34.1278C9.69742 34.1691 9.70367 34.2104 9.71016 34.2516C9.71992 34.314 9.73055 34.3763 9.74187 34.4382C9.74945 34.4789 9.75719 34.5196 9.76531 34.5602C9.7782 34.6235 9.7925 34.6866 9.80727 34.7495L9.81528 34.7841L9.81534 34.7843C9.82142 34.8106 9.8275 34.8369 9.83406 34.8632C9.85172 34.9329 9.87109 35.002 9.8907 35.0709L9.90069 35.1066C9.90574 35.1249 9.91078 35.1431 9.91617 35.1612C9.94602 35.2597 9.9775 35.3577 10.0116 35.4546C10.0135 35.4598 10.0155 35.4649 10.0175 35.47C10.0195 35.4751 10.0214 35.4802 10.0233 35.4853C10.0542 35.5717 10.0866 35.6575 10.121 35.7427C10.1286 35.7614 10.1366 35.7799 10.1446 35.7985C10.1503 35.8117 10.1561 35.825 10.1616 35.8383C10.1883 35.9013 10.2152 35.9639 10.2437 36.0261C10.2579 36.0569 10.2727 36.0876 10.2875 36.1182L10.2876 36.1184L10.2949 36.1337C10.3223 36.191 10.3505 36.2481 10.3798 36.3047C10.3988 36.3414 10.4181 36.3779 10.4376 36.4143C10.4675 36.4696 10.498 36.5244 10.5295 36.5789C10.5499 36.6145 10.5706 36.6502 10.5918 36.6856C10.6253 36.7413 10.6598 36.7963 10.695 36.8511L10.7173 36.886L10.7173 36.8861C10.7306 36.907 10.7439 36.9279 10.7577 36.9486C10.7984 37.0101 10.8409 37.0705 10.8839 37.1306L10.9037 37.1589C10.9141 37.174 10.9246 37.1892 10.9356 37.2041C10.9955 37.2859 11.057 37.3667 11.1208 37.4461C11.0562 37.4984 10.9905 37.5497 10.9238 37.5994ZM11.5729 35.7415C11.5348 35.6691 11.4985 35.5956 11.4639 35.5216C11.4558 35.5044 11.4481 35.487 11.4404 35.4697L11.4338 35.4548C11.41 35.4025 11.3868 35.3501 11.3648 35.2969C11.3535 35.2698 11.3427 35.2426 11.3319 35.2153C11.3121 35.1656 11.2932 35.1156 11.2749 35.0652L11.2691 35.0491C11.2609 35.0266 11.2528 35.0042 11.245 34.9816C11.2267 34.9284 11.2094 34.8748 11.1926 34.8209L11.1841 34.7941C11.1792 34.7785 11.1743 34.7629 11.1697 34.7473C11.1471 34.6709 11.1261 34.5942 11.1067 34.5169L11.1051 34.5109C11.0855 34.4314 11.068 34.3513 11.052 34.2708C11.0488 34.2549 11.046 34.2389 11.0432 34.2229L11.0432 34.2228L11.0383 34.1956C11.0278 34.1395 11.0181 34.0835 11.0095 34.0271C11.005 33.9973 11.0009 33.9674 10.9968 33.9375C10.9896 33.8844 10.9833 33.8311 10.9774 33.7777C10.9741 33.7473 10.9709 33.7171 10.9683 33.6866C10.9632 33.6302 10.9592 33.5734 10.9559 33.5166C10.9552 33.5053 10.9545 33.4941 10.9537 33.4829L10.9532 33.4747C10.9524 33.4622 10.9516 33.4497 10.951 33.4371C10.9471 33.354 10.9449 33.2706 10.9449 33.1869V27.3737C10.9488 27.378 10.9529 27.3822 10.9567 27.3866C10.9812 27.4143 11.0049 27.4427 11.0286 27.471L11.0286 27.4711C11.0415 27.4865 11.0544 27.5019 11.0674 27.5173C11.9953 28.616 12.6421 29.9149 12.9452 31.2863L12.9453 31.2869C12.9705 31.4008 12.993 31.5152 13.0134 31.63C13.0164 31.6473 13.019 31.6646 13.0219 31.6819C13.0225 31.6857 13.0231 31.6895 13.0238 31.6933C13.0402 31.7897 13.0553 31.8863 13.0684 31.9831C13.0722 32.0117 13.0754 32.0403 13.0785 32.0689C13.08 32.0824 13.0815 32.096 13.083 32.1095L13.0853 32.1286C13.0939 32.2014 13.1026 32.2743 13.1091 32.3473C13.1134 32.3959 13.1164 32.4445 13.1195 32.4932L13.1195 32.4933L13.1223 32.5388L13.1262 32.5938C13.1292 32.6346 13.1322 32.6753 13.1341 32.7164C13.1396 32.8415 13.1429 32.967 13.1429 33.0926V33.1866C13.1429 33.2709 13.1405 33.3548 13.1367 33.4385C13.1364 33.4465 13.1359 33.4545 13.1355 33.4625C13.1348 33.4745 13.134 33.4865 13.1332 33.4984L13.1317 33.5216C13.1284 33.5775 13.1245 33.6332 13.1195 33.6886C13.1166 33.7213 13.1132 33.7539 13.1097 33.7866C13.1042 33.8372 13.0979 33.8876 13.091 33.9381L13.0875 33.9639C13.084 33.989 13.0806 34.0141 13.0767 34.0391C13.0689 34.0898 13.0598 34.1402 13.0505 34.1906L13.0449 34.222C13.0412 34.2432 13.0374 34.2644 13.0332 34.2855C13.0179 34.3613 13.0011 34.4366 12.9826 34.5116C12.9768 34.5348 12.9705 34.5578 12.9642 34.5809L12.9539 34.6189L12.9498 34.6342C12.9397 34.6715 12.9295 34.7088 12.9188 34.7459C12.9069 34.7863 12.8941 34.8264 12.8811 34.8665C12.8694 34.9032 12.8573 34.9399 12.8448 34.9763C12.8306 35.0177 12.816 35.0591 12.8007 35.1C12.7906 35.1275 12.78 35.1546 12.7693 35.1818L12.7613 35.2023L12.7559 35.2161C12.7412 35.2534 12.7265 35.2906 12.7109 35.3274C12.7001 35.3529 12.6888 35.3781 12.6774 35.4032L12.6694 35.421C12.633 35.5028 12.5945 35.5837 12.554 35.6637L12.5406 35.6906C12.5317 35.7084 12.5228 35.7263 12.5135 35.7439C12.4962 35.7768 12.478 35.8092 12.4599 35.8416L12.4466 35.8652L12.4428 35.8721C12.4268 35.9006 12.4109 35.929 12.3945 35.9572C12.3718 35.9961 12.3481 36.0347 12.3242 36.0731C12.3048 36.1044 12.2853 36.1355 12.2652 36.1665C12.2412 36.2036 12.2168 36.2407 12.1919 36.2773C12.174 36.3035 12.1555 36.3294 12.1369 36.3554L12.1244 36.373L12.1099 36.3933C12.0901 36.4211 12.0702 36.4489 12.0497 36.4763C12.0481 36.4785 12.0462 36.4806 12.0446 36.4828L12.0317 36.4659L12.0316 36.4658C12.0263 36.4589 12.021 36.4521 12.0159 36.4452C11.9982 36.4213 11.9809 36.3971 11.9637 36.3729C11.9323 36.329 11.9016 36.2847 11.8716 36.24C11.855 36.2152 11.8384 36.1902 11.822 36.165C11.7913 36.1177 11.7618 36.07 11.7327 36.0218L11.7162 35.9948C11.7081 35.9815 11.6999 35.9683 11.6922 35.9548C11.653 35.8881 11.6152 35.8206 11.5791 35.7523C11.5772 35.749 11.5749 35.7453 11.5729 35.7415ZM21.9341 33.0927V33.1868C21.9341 36.2164 19.4693 38.6813 16.4396 38.6813H11.6795L11.6839 38.678L11.6896 38.6736C11.7029 38.6638 11.7157 38.6536 11.7287 38.6435C11.732 38.6411 11.7352 38.6386 11.7384 38.6362C11.8034 38.5873 11.8674 38.5374 11.9306 38.4862C11.9561 38.4655 11.9814 38.4443 12.0066 38.4233L12.0084 38.4218C12.0639 38.3756 12.1187 38.3283 12.1727 38.28L12.1823 38.2715C12.203 38.2533 12.2236 38.235 12.2439 38.2163C12.319 38.1477 12.3933 38.0776 12.4657 38.0052L12.4663 38.0046L12.4665 38.0045V38.0045H12.4666C12.4827 37.9884 12.4982 37.9723 12.5136 37.9563L12.5141 37.9559C12.5145 37.9556 12.5149 37.9553 12.5151 37.9549C12.5163 37.9538 12.5171 37.9527 12.5184 37.9516L12.524 37.9458C12.5249 37.945 12.5255 37.9442 12.5261 37.9434L12.5268 37.9425C12.539 37.93 12.5508 37.9171 12.5626 37.9043L12.5627 37.9042C12.5718 37.8943 12.581 37.8844 12.5902 37.8746L12.6183 37.8449L12.6185 37.8448C12.6552 37.806 12.692 37.7672 12.7273 37.7277C12.747 37.7057 12.7661 37.6832 12.7852 37.6607L12.81 37.6317C12.856 37.5786 12.902 37.5253 12.9462 37.471C12.9618 37.4519 12.9767 37.4324 12.9917 37.413L13.0151 37.3827L13.021 37.3751L13.0211 37.375C13.0651 37.3188 13.1091 37.2626 13.1512 37.2052C13.1627 37.1896 13.1737 37.1738 13.1846 37.158L13.2059 37.1277C13.2522 37.0627 13.2984 36.9974 13.3422 36.931C13.3506 36.9183 13.3587 36.9053 13.3668 36.8924L13.3668 36.8923L13.3832 36.8663C13.4294 36.7947 13.4751 36.7227 13.5184 36.6495C13.5287 36.6322 13.538 36.6145 13.548 36.597C13.5935 36.5189 13.638 36.4404 13.6799 36.3606C13.6824 36.356 13.6848 36.3513 13.6871 36.3466C13.6883 36.3442 13.6895 36.3418 13.6908 36.3394L13.6997 36.3217C13.7437 36.237 13.7863 36.1518 13.8267 36.0656L13.8326 36.0523L13.8388 36.0382C13.8805 35.9478 13.9207 35.8567 13.9582 35.7646L13.9624 35.754L13.9659 35.7447C14.0043 35.65 14.0409 35.5546 14.0748 35.4582L14.0786 35.4468L14.0802 35.442C14.1144 35.3444 14.1466 35.246 14.1763 35.1467L14.1774 35.1427C14.1786 35.1383 14.1798 35.1338 14.1812 35.1293C14.2105 35.0304 14.238 34.9309 14.2627 34.8306C14.2637 34.8264 14.2646 34.8223 14.2654 34.8181C14.2664 34.8132 14.2675 34.8084 14.2687 34.8037C14.2923 34.7064 14.3143 34.6086 14.3335 34.5101C14.3352 34.5014 14.3367 34.4926 14.3381 34.4838L14.3381 34.4837C14.3388 34.4798 14.3394 34.4758 14.3401 34.4719C14.3407 34.4684 14.3413 34.465 14.342 34.4615C14.3592 34.3698 14.3756 34.2779 14.3891 34.1854C14.3915 34.1688 14.3934 34.1521 14.3953 34.1353L14.3954 34.1352C14.3967 34.1234 14.3981 34.1115 14.3996 34.0997L14.4017 34.084C14.4117 34.0084 14.4218 33.9326 14.4291 33.8563C14.4323 33.8245 14.4343 33.7926 14.4364 33.7607C14.437 33.7505 14.4377 33.7403 14.4384 33.7302C14.4389 33.723 14.4394 33.7157 14.4399 33.7085L14.444 33.6567L14.444 33.6566C14.4476 33.6124 14.4512 33.5681 14.4534 33.5235C14.4587 33.4117 14.4616 33.2995 14.4616 33.1867V33.0927C14.4616 33.0508 14.4613 33.0089 14.4608 32.967H21.9349C21.9344 33.009 21.9341 33.0509 21.9341 33.0927ZM22.0426 31.6484H14.3539C14.233 30.84 14.0107 30.0516 13.6942 29.2981C15.102 29.9821 16.6157 30.3297 18.1979 30.3297C19.7827 30.3297 21.2991 29.9809 22.7087 29.2945C22.3907 30.0503 22.1647 30.8409 22.0426 31.6484ZM27.1998 20.3988L27.1991 20.4205L27.1978 20.439L27.1978 20.439C27.1973 20.4461 27.1967 20.4531 27.1964 20.4602C27.1906 20.5752 27.1831 20.6897 27.1728 20.8041L27.1723 20.8111C27.1716 20.8199 27.1709 20.8287 27.1701 20.8374C27.1585 20.9636 27.144 21.0891 27.1272 21.214C27.1256 21.2252 27.1244 21.2363 27.1228 21.2475C27.1048 21.3774 27.0841 21.5066 27.0603 21.6349C27.0427 21.732 27.0228 21.8286 27.002 21.9248C26.994 21.9613 26.9852 21.9976 26.9769 22.0339C26.9642 22.0888 26.9511 22.1437 26.9375 22.1984C26.9241 22.2514 26.9104 22.3041 26.8961 22.3568L26.8799 22.4153L26.8711 22.4468C26.1947 24.837 24.5284 26.8866 22.2933 28.0291C21.0193 28.6808 19.6413 29.011 18.1978 29.011C16.7543 29.011 15.3763 28.6807 14.1023 28.0292C13.2193 27.5778 12.4344 26.9961 11.7642 26.3152L11.731 26.2786C11.7105 26.2559 11.6899 26.2332 11.6687 26.211V26.2109L11.6661 26.2081C11.5975 26.1359 11.5304 26.0623 11.4641 25.9878L11.4513 25.9735L11.4262 25.9451C11.2852 25.7845 11.1496 25.6194 11.0209 25.4501L11.0205 25.4496C10.9537 25.3615 10.8884 25.2723 10.8251 25.1823L10.8247 25.1818L10.8245 25.1815C10.5613 24.8081 10.329 24.418 10.1276 24.0147C10.1215 24.0023 10.1152 23.9902 10.1092 23.9779C10.0644 23.8872 10.0214 23.7959 9.97969 23.7038L9.95898 23.657L9.95242 23.6421C9.91898 23.5667 9.88672 23.4907 9.85555 23.4145C9.84656 23.3927 9.83719 23.3709 9.82844 23.3491C9.79539 23.2666 9.76406 23.1834 9.73359 23.0999C9.72039 23.0639 9.70734 23.0277 9.69461 22.9914C9.66883 22.9184 9.64414 22.845 9.62039 22.7713C9.60909 22.7364 9.59833 22.7014 9.58757 22.6664C9.58479 22.6574 9.58201 22.6483 9.57922 22.6393C9.56219 22.5838 9.5457 22.528 9.52992 22.4723L9.52318 22.4484C9.51479 22.4188 9.50641 22.3891 9.49828 22.3594L9.49141 22.3334C9.47172 22.2596 9.45273 22.1854 9.435 22.1109C9.42601 22.0731 9.41742 22.0352 9.40883 21.9972L9.40775 21.9923L9.40617 21.985C9.39258 21.9245 9.37961 21.8638 9.3675 21.8032C9.36133 21.7733 9.35563 21.7434 9.35 21.7136C9.34586 21.6928 9.34187 21.6723 9.33797 21.6516C9.3268 21.5911 9.31648 21.5303 9.30641 21.4694C9.29852 21.4206 9.29078 21.3718 9.28352 21.3227C9.27453 21.2628 9.26687 21.2026 9.25937 21.1423L9.25682 21.1222L9.25682 21.1221C9.25171 21.0817 9.24659 21.0413 9.24211 21.0007L9.24062 20.9868C9.23414 20.9266 9.22859 20.8662 9.22328 20.8057L9.21908 20.7589L9.21907 20.7589C9.21623 20.7277 9.21338 20.6966 9.21109 20.6653C9.20594 20.5938 9.20226 20.5221 9.19891 20.4504L9.19681 20.4117C9.1958 20.394 9.19479 20.3764 9.19406 20.3587L9.19242 20.3102C9.18898 20.207 9.18664 20.1037 9.18664 20.0001C9.18664 19.8963 9.18898 19.7931 9.19242 19.69L9.19316 19.6705L9.19406 19.6416C9.19479 19.6237 9.1958 19.606 9.19681 19.5883L9.19891 19.5496C9.20234 19.478 9.20594 19.4063 9.21109 19.3349C9.21337 19.3038 9.2162 19.2728 9.21903 19.2419L9.22328 19.1945C9.22867 19.1341 9.23406 19.0737 9.24062 19.0134L9.24211 18.9992C9.24684 18.9572 9.25208 18.9152 9.25731 18.8733L9.25731 18.8732L9.25922 18.858L9.26039 18.8489C9.26773 18.7917 9.27506 18.7346 9.28352 18.6776C9.29055 18.6284 9.29844 18.5796 9.30641 18.5308C9.31648 18.4699 9.3268 18.4091 9.33797 18.3486L9.34465 18.314L9.34969 18.2881C9.35547 18.2577 9.36141 18.2273 9.3675 18.197C9.37984 18.1362 9.39273 18.0756 9.40617 18.0152L9.4082 18.0067L9.41293 17.9857C9.42016 17.9534 9.42738 17.9212 9.43508 17.8893C9.45281 17.8149 9.4718 17.7408 9.49148 17.6669L9.49836 17.641C9.506 17.613 9.51385 17.5852 9.52172 17.5573L9.5218 17.557L9.53 17.5279C9.54586 17.4723 9.56219 17.4166 9.57914 17.3613C9.59273 17.3169 9.60641 17.2724 9.62062 17.2279C9.64445 17.1547 9.66906 17.0817 9.69445 17.0091C9.70726 16.9727 9.72039 16.9363 9.73359 16.9002C9.76422 16.8169 9.79531 16.7339 9.82836 16.6516L9.84337 16.615L9.85563 16.5853C9.88672 16.5095 9.91898 16.4338 9.95227 16.3587C9.96148 16.3379 9.97047 16.3171 9.97976 16.2963C10.0213 16.2045 10.0642 16.1131 10.109 16.0226L10.1182 16.004L10.1275 15.9855C10.3288 15.5822 10.5612 15.1923 10.8243 14.8188L10.8245 14.8186L10.8249 14.818C11.0103 14.5541 11.2123 14.2984 11.4273 14.0537L11.4623 14.0144C11.5299 13.9383 11.5984 13.8629 11.6685 13.7892C11.6886 13.7682 11.7081 13.7466 11.7276 13.725C11.7396 13.7118 11.7516 13.6986 11.7637 13.6855C12.4338 13.0045 13.2189 12.4226 14.1021 11.971C15.3761 11.3195 16.7541 10.9891 18.1976 10.9891C19.6411 10.9891 21.0191 11.3195 22.293 11.9709C24.529 13.1139 26.1957 15.1647 26.8718 17.5569L26.8783 17.5801C26.8841 17.6006 26.8898 17.621 26.8954 17.6416C26.91 17.6953 26.924 17.7494 26.9376 17.8034C26.951 17.8573 26.964 17.9114 26.9764 17.9656C26.9849 18.0021 26.9937 18.0388 27.0016 18.0756C27.0227 18.1723 27.0425 18.2693 27.0604 18.3667C27.0838 18.4943 27.1045 18.6228 27.1223 18.752L27.1273 18.7886C27.1369 18.8602 27.1445 18.9322 27.1521 19.0042L27.1566 19.0463C27.1584 19.063 27.1604 19.0796 27.1624 19.0962L27.1624 19.0963C27.1651 19.1183 27.1678 19.1404 27.1698 19.1626L27.1727 19.1974C27.1839 19.3245 27.1929 19.452 27.1987 19.5799C27.1991 19.5871 27.1992 19.5944 27.1995 19.6016C27.2052 19.7343 27.2086 19.8671 27.2086 20.0004C27.2088 20.1332 27.2056 20.2661 27.1998 20.3988ZM28.7473 21.0989H28.4695C28.4705 21.09 28.4713 21.081 28.4721 21.072C28.4725 21.0674 28.4729 21.0627 28.4733 21.0581L28.4754 21.0357C28.4812 20.9763 28.4867 20.9166 28.4916 20.8572L28.4971 20.7927L28.4983 20.7755C28.5025 20.7181 28.5062 20.6606 28.5095 20.6033L28.5119 20.5654C28.5126 20.5531 28.5133 20.5407 28.5139 20.5284L28.5141 20.5233L28.5145 20.5166C28.5173 20.4577 28.5195 20.3985 28.5214 20.3393C28.5223 20.3141 28.5234 20.289 28.5241 20.2638L28.5241 20.2583C28.5262 20.1722 28.5276 20.0862 28.5276 20C28.5276 19.9138 28.5262 19.8278 28.5241 19.7417L28.5241 19.7361C28.5236 19.7171 28.5229 19.6982 28.5221 19.6793L28.5214 19.6606C28.5195 19.6013 28.5173 19.5422 28.5145 19.4832L28.5142 19.4765L28.5139 19.4717C28.513 19.4542 28.5119 19.4368 28.5108 19.4193L28.5095 19.3981C28.5062 19.34 28.5025 19.2819 28.4982 19.2239L28.4972 19.2073L28.492 19.1464C28.487 19.0849 28.4814 19.0236 28.4754 18.9623L28.4734 18.942L28.4719 18.9246L28.4719 18.9245C28.4712 18.9167 28.4705 18.9089 28.4697 18.9012H28.7474C29.3534 18.9012 29.8463 19.3941 29.8463 20.0001C29.8463 20.6061 29.3533 21.0989 28.7473 21.0989ZM25.2012 19.0742C24.8373 19.0877 24.5534 19.3937 24.5669 19.7575C24.5698 19.8381 24.5715 19.919 24.5715 20.0002C24.5715 21.9447 23.7003 23.7583 22.181 24.9761C21.0408 25.8905 19.6635 26.3739 18.1979 26.3739C16.7324 26.3739 15.355 25.8905 14.2146 24.9759C12.6955 23.7582 11.8242 21.9446 11.8242 20.0001C11.8242 18.0557 12.6954 16.2422 14.2148 15.0243C15.355 14.1099 16.7324 13.6265 18.1979 13.6265C19.3627 13.6265 20.5019 13.9434 21.4925 14.5429C21.8041 14.7316 22.2095 14.6318 22.398 14.3203C22.5866 14.0088 22.4869 13.6033 22.1754 13.4148C20.9789 12.6908 19.6034 12.3079 18.1979 12.3079C16.4545 12.3079 14.7468 12.9072 13.39 13.9955C11.557 15.4648 10.5056 17.6535 10.5056 20.0002C10.5056 22.3469 11.557 24.5356 13.3898 26.0047C14.7469 27.0931 16.4545 27.6925 18.198 27.6925C19.9416 27.6925 21.6491 27.0931 23.0059 26.0047C24.839 24.5355 25.8902 22.3469 25.8902 20.0001C25.8902 19.9025 25.8884 19.805 25.8847 19.7084C25.8711 19.3446 25.5672 19.0602 25.2012 19.0742ZM17.5385 16.4836C17.5385 16.1194 17.8337 15.8242 18.1979 15.8242C18.562 15.8242 18.8572 16.1193 18.8572 16.4836V20.2199H20.8352C21.1994 20.2199 21.4946 20.5151 21.4946 20.8792C21.4946 21.2434 21.1994 21.5386 20.8352 21.5386H18.1979C17.8337 21.5386 17.5385 21.2434 17.5385 20.8792V16.4836Z" fill="#5682F7"/>
</svg>
