<svg width="40" height="34" viewBox="0 0 40 34" fill="none" xmlns="http://www.w3.org/2000/svg">
<path fill-rule="evenodd" clip-rule="evenodd" d="M38.2536 27.953L39.9016 30.425C39.9658 30.5212 40 30.6344 40 30.75C40 32.3655 38.6858 33.6797 37.0703 33.6797H2.92969C1.31422 33.6797 0 32.3655 0 30.75C0 30.6344 0.0342187 30.5212 0.0984375 30.425L1.74633 27.953C2.08203 27.4495 2.55727 27.0716 3.10219 26.8554C2.63117 26.3353 2.34375 25.6459 2.34375 24.8906V3.25C2.34375 1.63453 3.65797 0.320312 5.27344 0.320312H34.7266C36.342 0.320312 37.6562 1.63453 37.6562 3.25V24.8906C37.6562 25.6459 37.3688 26.3353 36.8977 26.8554C37.4427 27.0716 37.9179 27.4495 38.2536 27.953ZM5.27344 1.49219C4.30422 1.49219 3.51562 2.2807 3.51562 3.25V24.8906C3.51562 25.8599 4.30422 26.6484 5.27344 26.6484H34.7266C35.6958 26.6484 36.4844 25.8599 36.4844 24.8906V3.25C36.4844 2.2807 35.6958 1.49219 34.7266 1.49219H5.27344ZM4.18406 27.8203C3.595 27.8203 3.0482 28.113 2.72141 28.6031L1.68078 30.1641H38.3193L37.2787 28.603C36.9519 28.113 36.4051 27.8203 35.816 27.8203H4.18406ZM22.101 32.5078L23.2729 31.3359H16.7271L17.899 32.5078H22.101ZM15.0698 31.3359H1.27414C1.51617 32.0176 2.16602 32.5078 2.92969 32.5078H16.2416L15.0698 31.3359ZM23.7584 32.5078H37.0703C37.834 32.5078 38.4838 32.0176 38.7258 31.3359H24.9302L23.7584 32.5078ZM34.7266 25.4766H5.27344C4.94977 25.4766 4.6875 25.2142 4.6875 24.8906V15.2422C4.6875 14.9186 4.94977 14.6562 5.27344 14.6562C5.59711 14.6562 5.85938 14.9186 5.85938 15.2422V24.3047H34.1406V3.83594H5.85938V12.8984C5.85938 13.222 5.59711 13.4844 5.27344 13.4844C4.94977 13.4844 4.6875 13.222 4.6875 12.8984V3.25C4.6875 2.92641 4.94977 2.66406 5.27344 2.66406H34.7266C35.0502 2.66406 35.3125 2.92641 35.3125 3.25V24.8906C35.3125 25.2142 35.0502 25.4766 34.7266 25.4766Z" fill="#765CF6"/>
</svg>
